<svg width="60" height="60" viewBox="0 0 60 60" fill="none" xmlns="http://www.w3.org/2000/svg">
<g clip-path="url(#clip0_4180_17401)">
<path d="M34.8541 15.3994L21.2177 29.0361C20.962 29.2918 20.8184 29.6387 20.8184 30.0003C20.8184 30.362 20.9621 30.7089 21.2178 30.9646L34.8542 44.6006C35.3867 45.1331 36.2501 45.1331 36.7826 44.6006C37.3151 44.0681 37.3152 43.2047 36.7826 42.6721L24.1105 30.0003L36.7826 17.3279C37.0489 17.0616 37.182 16.7126 37.182 16.3636C37.182 16.0146 37.0489 15.6656 36.7825 15.3993C36.25 14.8669 35.3866 14.8669 34.8541 15.3994Z" fill="white"/>
</g>
<path d="M30 0.5C46.2924 0.5 59.5 13.7076 59.5 30C59.5 46.2924 46.2924 59.5 30 59.5C13.7076 59.5 0.5 46.2924 0.5 30C0.5 13.7076 13.7076 0.5 30 0.5Z" stroke="white"/>
<defs>
<clipPath id="clip0_4180_17401">
<rect width="30" height="30" fill="white" transform="matrix(0 -1 1 0 14 45)"/>
</clipPath>
</defs>
</svg>
