<svg width="32" height="32" fill="none" xmlns="http://www.w3.org/2000/svg"><g clip-path="url(#clip0_4200_26839)"><path d="M5.007 10.283a1.112 1.112 0 000 1.587 1.12 1.12 0 001.571 0l8.047-8.047v26.554a1.106 1.106 0 001.112 1.111c.62 0 1.127-.492 1.127-1.11V3.822l8.032 8.047c.444.43 1.16.43 1.587 0a1.112 1.112 0 000-1.587L16.531.331a1.093 1.093 0 00-1.57 0l-9.954 9.952z" fill="#1F1F1F"/></g><defs><clipPath id="clip0_4200_26839"><path fill="#fff" transform="rotate(-90 15.744 15.744)" d="M0 0h31.49v31.49H0z"/></clipPath></defs></svg>