<svg width="60" height="60" fill="none" xmlns="http://www.w3.org/2000/svg"><g clip-path="url(#clip0_4180_17402)"><path d="M25.146 44.6l13.636-13.636a1.364 1.364 0 000-1.929L25.146 15.4a1.364 1.364 0 10-1.929 1.929L35.89 30 23.217 42.672a1.36 1.36 0 00-.399.964 1.364 1.364 0 002.328.964z" fill="#fff"/></g><path d="M30 59.5C13.708 59.5.5 46.292.5 30S13.708.5 30 .5 59.5 13.708 59.5 30 46.292 59.5 30 59.5z" stroke="#fff"/><defs><clipPath id="clip0_4180_17402"><path fill="#fff" transform="rotate(90 15.5 30.5)" d="M0 0h30v30H0z"/></clipPath></defs></svg>