<svg width="60" height="60" fill="none" xmlns="http://www.w3.org/2000/svg"><g clip-path="url(#clip0_4180_17401)"><path d="M34.854 15.4L21.218 29.035a1.364 1.364 0 000 1.929L34.854 44.6a1.364 1.364 0 101.929-1.929L24.11 30l12.673-12.672c.266-.266.399-.615.399-.964a1.364 1.364 0 00-2.328-.964z" fill="#fff"/></g><path d="M30 .5C46.292.5 59.5 13.708 59.5 30S46.292 59.5 30 59.5.5 46.292.5 30 13.708.5 30 .5z" stroke="#fff"/><defs><clipPath id="clip0_4180_17401"><path fill="#fff" transform="rotate(-90 29.5 15.5)" d="M0 0h30v30H0z"/></clipPath></defs></svg>