<svg width="60" height="60" viewBox="0 0 60 60" fill="none" xmlns="http://www.w3.org/2000/svg">
<g clip-path="url(#clip0_4180_17402)">
<path d="M25.1459 44.6006L38.7823 30.9639C39.038 30.7082 39.1816 30.3613 39.1816 29.9997C39.1816 29.638 39.0379 29.2911 38.7822 29.0354L25.1458 15.3994C24.6133 14.8669 23.7499 14.8669 23.2174 15.3994C22.6849 15.9319 22.6848 16.7953 23.2174 17.3279L35.8895 29.9997L23.2174 42.6721C22.9511 42.9384 22.818 43.2874 22.818 43.6364C22.818 43.9854 22.9511 44.3344 23.2175 44.6007C23.75 45.1331 24.6134 45.1331 25.1459 44.6006Z" fill="white"/>
</g>
<path d="M30 59.5C13.7076 59.5 0.5 46.2924 0.5 30C0.5 13.7076 13.7076 0.5 30 0.5C46.2924 0.5 59.5 13.7076 59.5 30C59.5 46.2924 46.2924 59.5 30 59.5Z" stroke="white"/>
<defs>
<clipPath id="clip0_4180_17402">
<rect width="30" height="30" fill="white" transform="matrix(0 1 -1 0 46 15)"/>
</clipPath>
</defs>
</svg>
