<svg width="384" height="384" fill="none" xmlns="http://www.w3.org/2000/svg"><g clip-path="url(#clip0_4192_26839)"><path d="M30.812 252.052c23.51 0 46.594-3.677 68.469-10.906 10.719-3.656 23.896-.302 30.438 6.417l43.177 32.594c50.073-26.729 80.917-57.563 107.281-107.26l-31.635-42.052c-8.219-8.208-11.167-20.198-7.635-31.448 7.26-21.99 10.948-45.063 10.948-68.583C251.854 13.823 265.677 0 282.667 0h70.52C370.177 0 384 13.823 384 30.813 384 225.563 225.562 384 30.812 384c-16.99 0-30.813-13.823-30.813-30.813v-70.323c.001-16.989 13.824-30.812 30.813-30.812z" fill="#000"/></g><defs><clipPath id="clip0_4192_26839"><path fill="#fff" transform="matrix(-1 0 0 1 384 0)" d="M0 0h384v384H0z"/></clipPath></defs></svg>