<svg width="483" height="494" fill="none" xmlns="http://www.w3.org/2000/svg"><g clip-path="url(#clip0_5_2)"><path d="M336.323 150.198s35.131-11.496 63.372-39.089l.063 22.987c-15.203 12.687-35.586 19.458-35.586 19.458l-27.849-3.356zM465.741 0l-.062 14.277c2.448 87.16 2.278 174.889-.569 262.049v-1.878l-.114 40.963 17.935-12.289V17.748L465.741 0z" fill="#0D0D0D"/><path d="M465.741 14.166L465.742 0l-55.97 8.079c-4.954 14.735-11.615 47.107-73.449 78.341v63.778s35.13-11.493 63.371-39.086V310.35l65.307 5.064.114-40.963c-2.448-86.591-2.221-173.751.626-260.285z" fill="#414141"/><path d="M465.742 14.159c2.505 87.216 2.277 175.002-.627 262.162-2.505-87.217-2.277-175.003.627-262.162z" fill="#ACACAC"/><path d="M306.721 464.643l-22.205-77.26-28.819 1.288 18.684 64.594 32.34 11.378zm-69.235-148.945l-27.615-99.562 15.715-51.659 43.158 151.221h-31.258z" fill="#820000"/><path d="M268.745 71.97l-90.531-17.125-26.419 76.008a9628.563 9628.563 0 01-98.33 286.854c62.687-18.832 104.309-57.576 136.194-102.009h-10.021l45.948-151.221 14.576 51.09c29.437-81.243 28.583-143.598 28.583-143.655v.057z" fill="#FF3F36"/><path d="M270.168 72.197l-1.423-.228s.855 62.295-28.582 143.595l28.582 100.134h-79.086c-31.885 44.433-73.507 83.177-136.195 102.009C44.24 443.195 35.017 468.683 25.622 494l108.807-11.378 25.565-89.664 124.522-5.575 22.206 77.26 77.89-8.477-114.444-383.97z" fill="#EB140A"/><path d="M154.466 122.676c-.57 1.82-1.196 3.584-1.765 5.404l25.506-73.218-38.887 19.967L-.005 472.794l25.629 21.211c40.255-124.197 83.463-248.896 128.785-371.329h.057z" fill="#B80000"/><path d="M154.471 122.661A9599.109 9599.109 0 0125.621 494a9599.109 9599.109 0 01128.85-371.339z" fill="#FDC9C4"/></g><defs><clipPath id="clip0_5_2"><path fill="#fff" d="M0 0h483v494H0z"/></clipPath></defs></svg>