<svg xmlns="http://www.w3.org/2000/svg" width="160" height="160" viewBox="0 0 4233.34 4233.34"><path fill="#ff0b51" d="M2116.67 0c1168.99 0 2116.67 947.68 2116.67 2116.67 0 1168.99-947.68 2116.67-2116.67 2116.67C947.68 4233.34 0 3285.66 0 2116.67 0 947.68 947.68 0 2116.67 0zm.45 1464.44c-360.15 0-651.74 291.88-651.74 651.72 0 360.16 291.91 651.73 651.74 651.73 360.14 0 651.72-291.89 651.72-651.73 0-360.15-291.88-651.72-651.72-651.72zm0 1074.74c-233.79 0-423.02-189.34-423.02-423.02 0-233.68 189.34-423.01 423.02-423.01 233.68 0 423.01 189.33 423.01 423.01.11 233.68-189.23 423.02-423.01 423.02zm523.25-1684.56c-233.69-10.89-812.5-10.38-1046.39 0-205.52 9.63-386.82 59.26-532.97 205.41-244.27 244.28-213.05 573.42-213.05 1056.13 0 494.03-27.51 815.55 213.05 1056.12 245.21 245.12 579.11 213.04 1056.11 213.04 489.37 0 658.28.32 831.31-66.68 235.27-91.33 412.87-301.62 430.22-679.34 11-233.78 10.38-812.49 0-1046.37-20.95-445.88-260.24-716.29-738.28-738.31zm369.88 2156.05c-160.14 160.13-382.27 145.84-896.2 145.84-529.17 0-741.36 7.83-896.21-147.42-178.33-177.5-146.04-462.51-146.04-894.62 0-584.73-60.01-1005.85 526.83-1035.9 134.84-4.77 174.52-6.36 513.94-6.36l4.76 3.17c563.98 0 1006.47-59.04 1033.03 527.7 6.05 133.88 7.42 174.1 7.42 512.97-.12 523.04 9.82 736.51-147.54 894.62h.01zm-63.3-1571.95c0-84.11-68.17-152.31-152.28-152.31-84.12 0-152.31 68.2-152.31 152.31 0 84.1 68.19 152.29 152.31 152.29 84.11 0 152.28-68.19 152.28-152.29z"/></svg>