<svg xmlns="http://www.w3.org/2000/svg" viewBox="0 0 51.06 51.06"><circle fill="#F2F2F2" cx="25.53" cy="25.53" r="25.53"/><path d="M41.08 35.96c.03.4-.15.67-.54.84-.4.15-1.11.24-2.13.24-.62 0-1.11-.01-1.49-.02-.37-.02-.66-.06-.86-.12-.19-.06-.33-.15-.41-.27-.07-.12-.11-.28-.13-.46l-1.26-11.41c-.04-.41-.09-.87-.13-1.38s-.07-1.02-.11-1.54c-.04-.53-.07-1.05-.11-1.56-.03-.52-.07-.98-.12-1.4l.02-.59c-.11.43-.24.89-.37 1.41-.14.5-.28 1.02-.44 1.54s-.31 1.05-.45 1.56c-.14.52-.28.98-.41 1.4l-3.72 11.76a1.3 1.3 0 01-.82.84c-.24.09-.53.15-.89.19-.35.04-.8.06-1.34.06-.49 0-.91-.02-1.25-.06s-.63-.11-.85-.19a1.06 1.06 0 01-.54-.34 1.06 1.06 0 01-.26-.53l-3.65-11.74c-.12-.41-.26-.88-.41-1.38s-.3-1.02-.45-1.55c-.15-.52-.29-1.04-.42-1.56-.14-.51-.25-.98-.35-1.41l.02.59c-.03.41-.07.88-.1 1.4s-.06 1.03-.11 1.56c-.05.52-.1 1.04-.15 1.54-.05.51-.08.97-.11 1.38l-1.21 11.27a1 1 0 01-.62.84c-.23.07-.53.13-.91.15-.38.02-.89.03-1.5.03-.55 0-1-.02-1.33-.05s-.59-.09-.78-.18a.62.62 0 01-.36-.33c-.05-.14-.07-.31-.06-.51l2.1-19.89a2.1 2.1 0 012.34-2.05h3.02c.64 0 1.18.05 1.63.15.45.09.83.26 1.16.5.34.24.62.56.84.98.22.41.42.93.59 1.55l2.39 7.29c.14.48.28.97.42 1.49.15.52.29 1.03.43 1.55.15.51.28 1.02.39 1.49.12.49.23.94.33 1.37h.02c.1-.43.2-.89.33-1.41.13-.51.26-1.02.39-1.55.14-.52.28-1.04.43-1.54.15-.51.29-.98.44-1.43l2.37-7.26c.15-.57.33-1.06.52-1.46.19-.41.44-.73.74-.98a3 3 0 011.12-.54c.44-.12.99-.18 1.64-.18h2.99a2.1 2.1 0 012.36 2.05L41.08 36z"/></svg>