<svg xmlns="http://www.w3.org/2000/svg" xml:space="preserve"
     width="211.667mm" height="211.667mm" viewBox="0 0 10918.25 10918.25"
     style="shape-rendering:geometricPrecision; text-rendering:geometricPrecision; image-rendering:optimizeQuality; fill-rule:evenodd; clip-rule:evenodd">
  <style>
    .fil0 { fill: black; }
  </style>
  <g>
    <path class="fil0" d="M5459.12 0c3014.99,0 5459.12,2444.13 5459.12,5459.12 0,3014.99 -2444.13,5459.12 -5459.12,5459.12 -3014.99,0 -5459.12,-2444.13 -5459.12,-5459.12 0,-3014.99 2444.13,-5459.12 5459.12,-5459.12zm3046.63 4837.95c-622.78,0 -1200.13,-199.15 -1671.22,-537.47l0 2441.32c0,1219.35 -991.96,2211.02 -2211.01,2211.02 -471.09,0 -908.11,-148.49 -1267.1,-400.63 -570.08,-400.34 -943.92,-1062.42 -943.92,-1810.39 0,-1219.35 991.96,-2211.31 2211.31,-2211.31 101.32,0 200.31,8.44 297.85,21.55l0 284.46 0 941.88c-94.33,-29.41 -193.91,-46.58 -297.85,-46.58 -556.69,0 -1009.72,453.04 -1009.72,1010.01 0,387.82 220.11,724.68 541.55,893.84 140.05,73.66 299.31,115.88 468.47,115.88 543.87,0 987.59,-432.65 1007.97,-971.87l0.87 -4814.21 1201.3 0c0,104.23 10.19,205.84 28.24,304.84 84.72,457.69 356.37,850.46 732.83,1095.9 262.04,170.91 574.74,270.77 910.14,270.77l0 1201.01 0.29 0z"/>
  </g>
</svg>
